<svg width="32" height="32" fill="none" xmlns="http://www.w3.org/2000/svg"><path d="M2.343 2.343C0 4.686 0 8.458 0 16c0 7.543 0 11.314 2.343 13.657C4.653 31.966 8.348 32 15.673 32a.1.1 0 0 1-.1-.1v-12a.1.1 0 0 0-.1-.1H12.1a.1.1 0 0 1-.1-.1v-4.192a.1.1 0 0 1 .1-.1h3.374a.1.1 0 0 0 .1-.1v-3.652C15.574 8.707 17.685 6 22.549 6c1.683 0 2.99.124 3.336.16.052.006.09.05.088.102l-.11 3.912a.1.1 0 0 1-.1.098c-.356-.003-1.633-.013-3.009-.013-1.754 0-2.035.73-2.035 1.941v3.107a.1.1 0 0 0 .1.1h5.076a.1.1 0 0 1 .1.106l-.22 4.192a.1.1 0 0 1-.1.095H20.82a.1.1 0 0 0-.1.1v12a.1.1 0 0 1-.029.07c4.533-.097 7.17-.516 8.967-2.313C32 27.314 32 23.543 32 16c0-7.542 0-11.314-2.343-13.657S23.543 0 16 0C8.458 0 4.686 0 2.343 2.343z" fill="#757778"/></svg>