<svg width="32" height="32" fill="none" xmlns="http://www.w3.org/2000/svg"><path fill-rule="evenodd" clip-rule="evenodd" d="M2.343 2.343C0 4.686 0 8.458 0 16c0 7.543 0 11.314 2.343 13.657S8.458 32 16 32c7.543 0 11.314 0 13.657-2.343S32 23.543 32 16c0-7.542 0-11.314-2.343-13.657S23.543 0 16 0C8.458 0 4.686 0 2.343 2.343zM10.767 26.4a.1.1 0 0 1-.1.1H6.366a.1.1 0 0 1-.1-.1V13.106a.1.1 0 0 1 .1-.1h4.301a.1.1 0 0 1 .1.1V26.4zm.297-17.569c0 1.295-.977 2.332-2.547 2.332h-.03C6.978 11.163 6 10.126 6 8.83 6 7.508 7.007 6.5 8.547 6.5c1.54 0 2.488 1.007 2.517 2.332zM13.259 26.5c0-.065.056-11.706.004-13.396-.002-.057.044-.098.1-.098h4.297a.1.1 0 0 1 .1.1v1.81c.599-.92 1.67-2.227 4.057-2.227 2.962 0 5.183 1.929 5.183 6.074V26.4a.1.1 0 0 1-.1.1h-4.301a.1.1 0 0 1-.1-.1v-7.12c0-1.813-.652-3.05-2.28-3.05-1.244 0-1.985.834-2.31 1.64-.12.288-.149.691-.149 1.094V26.4a.1.1 0 0 1-.1.1H13.26z" fill="#757778"/></svg>