<svg width="64" height="64" fill="none" xmlns="http://www.w3.org/2000/svg"><path fill="#fff" d="M0 0h64v64H0z"/><path fill-rule="evenodd" clip-rule="evenodd" d="M29.667 12.052c-2.866.271-5.214.908-7.488 2.031-1.665.822-2.688 1.552-3.986 2.846-2.543 2.534-3.776 5.408-4.115 9.595-.248 3.054.101 6.494.96 9.477 1.381 4.791 4.445 9.47 8.14 12.428 2.378 1.904 4.438 2.968 6.62 3.418.984.203 3.377.204 4.387.003 2.796-.559 5.528-2.203 8.34-5.021 2.068-2.072 3.52-4.067 4.749-6.53 1.716-3.435 2.578-6.887 2.708-10.842.15-4.533-.653-7.847-2.594-10.712-.78-1.15-2.454-2.784-3.696-3.607-2.316-1.535-5.092-2.534-8.224-2.959-1.19-.161-4.643-.237-5.8-.127zm13.528 18.48c.639.244 1.295.874 1.596 1.53.273.594.367 1.797.207 2.641-.139.728-.917 2.305-1.557 3.152-2.008 2.659-5.143 4.085-7.324 3.331-.616-.213-1.431-1.044-1.688-1.72-.711-1.877.108-4.323 2.161-6.454.869-.901 1.62-1.484 2.514-1.95.601-.312 1.475-.633 1.99-.73.5-.094 1.612.012 2.101.2zm-19.175.246c1.278.475 2.436 1.287 3.582 2.512 1.54 1.645 2.311 3.394 2.218 5.03-.075 1.313-.63 2.167-1.774 2.732-.626.309-.702.325-1.489.323-1.785-.006-3.67-.963-5.276-2.68-1.113-1.19-2.068-2.893-2.268-4.047-.25-1.443.22-2.916 1.16-3.63.58-.441 1.122-.576 2.179-.539.8.028 1.067.076 1.668.3z" fill="#57ACBC"/></svg>