<svg width="144" height="89" fill="none" xmlns="http://www.w3.org/2000/svg"><path d="M60.49 3.042a23.297 23.297 0 0 1 23.02 0l7.863 4.466a23.302 23.302 0 0 0 11.521 3.042l16.337-.007c6.904-.004 12.5 5.61 12.49 12.53v.236a12.114 12.114 0 0 0 6.139 10.562c8.187 4.635 8.187 16.454 0 21.089a12.113 12.113 0 0 0-6.139 10.562v.235c.01 6.92-5.586 12.535-12.49 12.532l-16.337-.008a23.303 23.303 0 0 0-11.521 3.042l-7.863 4.466a23.297 23.297 0 0 1-23.02 0l-7.863-4.466a23.302 23.302 0 0 0-11.52-3.042l-16.338.008c-6.904.003-12.5-5.612-12.49-12.532v-.235A12.115 12.115 0 0 0 6.14 54.96c-8.186-4.635-8.186-16.454 0-21.089a12.115 12.115 0 0 0 6.14-10.562v-.235c-.01-6.92 5.586-12.535 12.49-12.531l16.337.007a23.302 23.302 0 0 0 11.521-3.042l7.863-4.466z" fill="#FFAD20"/><path fill-rule="evenodd" clip-rule="evenodd" d="M45.306 14.6a22.749 22.749 0 0 1-1.924.081l-3.039-.001a2.618 2.618 0 0 0 2.617 2.62h.42c.23 0 .46-.003.689-.01a2.618 2.618 0 0 0 2.539-2.837c-.432.061-.866.11-1.302.148zm5.795-1.269a2.618 2.618 0 0 0 3.58 1.303c.207-.103.411-.209.614-.318l.404-.218a2.618 2.618 0 0 0 1.065-3.547l-2.71 1.46a22.035 22.035 0 0 1-2.953 1.32zm7.527-3.783a2.618 2.618 0 0 0 3.546 1.064l.405-.218c.107-.058.214-.114.321-.169a2.618 2.618 0 0 0 1.197-3.386 22.253 22.253 0 0 0-2.76 1.25l-2.71 1.459zm6.738-3.14a2.618 2.618 0 0 0 3.015 1.956 20 20 0 0 1 .718-.118 2.618 2.618 0 0 0 2.23-2.818 22.776 22.776 0 0 0-4.7.633 22.48 22.48 0 0 0-1.263.347zm7.304-.98a2.618 2.618 0 0 0 2.231 2.818c.24.035.48.074.718.118a2.618 2.618 0 0 0 3.015-1.956 22.48 22.48 0 0 0-4.656-.904 22.778 22.778 0 0 0-1.308-.076zm7.233 1.41a2.618 2.618 0 0 0 1.197 3.387c.107.055.214.111.32.169l.406.218a2.618 2.618 0 0 0 3.546-1.064l-2.71-1.46a22.03 22.03 0 0 0-2.759-1.25zm7.333 3.713a2.618 2.618 0 0 0 1.064 3.547l.405.218c.203.109.407.215.613.319a2.618 2.618 0 0 0 3.58-1.304 22.257 22.257 0 0 1-2.952-1.32l-2.71-1.46zm10.156 3.902a2.618 2.618 0 0 0 2.54 2.838c.228.006.458.008.687.008h.421a2.618 2.618 0 0 0 2.617-2.62l-3.039.002a22.667 22.667 0 0 1-3.226-.228zm7.755.226a2.618 2.618 0 0 0 2.619 2.617h.841a2.618 2.618 0 0 0 2.617-2.62l-6.077.003zm7.567-.003a2.619 2.619 0 0 0 2.62 2.617h.42c.13 0 .26.002.389.007a2.618 2.618 0 0 0 2.693-2.232 12.018 12.018 0 0 0-3.083-.393h-3.039zm8.577 1.335a2.62 2.62 0 0 0 .479 3.454c.194.165.379.337.556.516a2.62 2.62 0 0 0 3.472.224 10.883 10.883 0 0 0-1.61-2.065 11.26 11.26 0 0 0-1.766-1.46c-.362-.242-.74-.466-1.131-.669zm5.578 6.593a2.62 2.62 0 0 0-2.173 2.698c.006.123.009.247.009.371l-.001.012.002.092a2.8 2.8 0 0 0-.002.092v.011c0 .268.008.534.024.799a2.618 2.618 0 0 0 3.11 2.41 9.967 9.967 0 0 1-.456-2.092 10.295 10.295 0 0 1-.06-1.112l.001-.208a11.513 11.513 0 0 0-.057-1.112 10.222 10.222 0 0 0-.218-1.296 10.597 10.597 0 0 0-.179-.665zm3.531 10.62a2.618 2.618 0 0 0 .694 3.852c.221.135.447.265.678.389.099.053.196.107.29.162 1.162.678 2.63.36 3.415-.692-.312-.297-.646-.58-1.004-.848a11.524 11.524 0 0 0-1.463-.93 11.162 11.162 0 0 1-2.61-1.933zm6.097 4.832a2.62 2.62 0 0 0-1.056 3.294c.084.193.16.39.228.587a2.618 2.618 0 0 0 3.001 1.72 10.378 10.378 0 0 0-.829-3.354 10.188 10.188 0 0 0-1.344-2.247zm2.173 7.118a2.618 2.618 0 0 0-3.001 1.72 7.909 7.909 0 0 1-.228.588 2.62 2.62 0 0 0 1.056 3.294 10.227 10.227 0 0 0 1.344-2.248 10.43 10.43 0 0 0 .649-2.052c.087-.43.147-.865.18-1.302zm-3.193 6.723a2.618 2.618 0 0 0-3.415-.692c-.094.055-.191.11-.29.162a13.54 13.54 0 0 0-.678.389 2.618 2.618 0 0 0-.694 3.852 11.15 11.15 0 0 1 2.61-1.934 11.485 11.485 0 0 0 1.463-.93c.358-.267.692-.55 1.004-.847zm-7.639 7.845a2.618 2.618 0 0 0-3.11 2.41c-.016.266-.024.532-.024.8v.011l.002.092a2.8 2.8 0 0 0-.002.092l.001.011c0 .125-.003.249-.009.372a2.62 2.62 0 0 0 2.173 2.698 10.6 10.6 0 0 0 .397-1.961 10.552 10.552 0 0 0 .057-1.113l-.001-.206a10.298 10.298 0 0 1 .06-1.113 9.776 9.776 0 0 1 .227-1.295c.065-.27.142-.535.229-.798zm-2.04 8.885a2.62 2.62 0 0 0-3.472.224c-.177.179-.362.35-.556.516a2.62 2.62 0 0 0-.479 3.453 11.711 11.711 0 0 0 2.175-1.458 11.234 11.234 0 0 0 2.332-2.735zm-6.962 5.137a2.618 2.618 0 0 0-2.693-2.233 9.67 9.67 0 0 1-.389.008h-.42a2.619 2.619 0 0 0-2.62 2.617l3.039.001a12.247 12.247 0 0 0 3.083-.393zm-7.612.391a2.618 2.618 0 0 0-2.617-2.62h-.841a2.618 2.618 0 0 0-2.619 2.618l6.077.002zm-7.567-.003a2.618 2.618 0 0 0-2.617-2.62h-.421c-.229 0-.459.003-.688.01a2.618 2.618 0 0 0-2.539 2.837 22.717 22.717 0 0 1 3.226-.228h3.039zM92.899 75.5a2.618 2.618 0 0 0-3.58-1.303c-.207.102-.411.209-.614.318l-.405.218a2.618 2.618 0 0 0-1.064 3.546l2.71-1.459a22.035 22.035 0 0 1 2.953-1.32zm-7.527 3.783a2.618 2.618 0 0 0-3.546-1.064l-.405.218a20.47 20.47 0 0 1-.321.169 2.618 2.618 0 0 0-1.197 3.386 22.269 22.269 0 0 0 2.759-1.25l2.71-1.459zm-6.738 3.14a2.618 2.618 0 0 0-3.015-1.956c-.239.044-.478.083-.718.118a2.618 2.618 0 0 0-2.23 2.818 22.688 22.688 0 0 0 5.963-.98zm-7.304.98a2.618 2.618 0 0 0-2.231-2.818c-.24-.035-.48-.074-.718-.118a2.618 2.618 0 0 0-3.015 1.956 22.514 22.514 0 0 0 4.656.904c.435.038.871.063 1.308.076zm-7.233-1.41a2.618 2.618 0 0 0-1.197-3.387 20.47 20.47 0 0 1-.321-.17l-.405-.217a2.618 2.618 0 0 0-3.546 1.064l2.71 1.46a21.796 21.796 0 0 0 1.545.755c.4.177.805.342 1.214.494zm-7.333-3.714a2.618 2.618 0 0 0-1.065-3.546l-.404-.218c-.203-.11-.407-.216-.613-.319a2.618 2.618 0 0 0-3.58 1.304 22.257 22.257 0 0 1 2.952 1.32l2.71 1.46zm-10.156-3.9a2.618 2.618 0 0 0-2.54-2.838 25.46 25.46 0 0 0-.688-.01h-.42a2.618 2.618 0 0 0-2.617 2.62l3.039-.001a22.675 22.675 0 0 1 3.226.228zm-7.755-.227a2.618 2.618 0 0 0-2.62-2.618h-.84a2.618 2.618 0 0 0-2.617 2.62l6.077-.002zm-7.567.003a2.618 2.618 0 0 0-2.62-2.617h-.42c-.13 0-.26-.002-.389-.008a2.619 2.619 0 0 0-2.693 2.233 12.028 12.028 0 0 0 3.083.393l3.039-.001zm-8.578-1.336a2.619 2.619 0 0 0-.478-3.454 8.782 8.782 0 0 1-.557-.515 2.619 2.619 0 0 0-3.471-.224 10.96 10.96 0 0 0 1.61 2.065 11.371 11.371 0 0 0 1.766 1.46c.362.242.74.466 1.13.668zm-5.577-6.592a2.619 2.619 0 0 0 2.172-2.698 8.019 8.019 0 0 1-.008-.372v-.011l-.001-.092.002-.092v-.011c0-.268-.008-.534-.024-.8a2.618 2.618 0 0 0-3.11-2.41 10.231 10.231 0 0 1 .497 2.57c.013.211.019.423.018.636v.206a10.755 10.755 0 0 0 .15 1.795 10.487 10.487 0 0 0 .304 1.28zm-3.532-10.62a2.618 2.618 0 0 0-.693-3.852 13.956 13.956 0 0 0-.678-.389 9.238 9.238 0 0 1-.29-.162 2.619 2.619 0 0 0-3.415.692c.312.297.646.58 1.004.847a11.5 11.5 0 0 0 1.463.93 11.333 11.333 0 0 1 1.626 1.062c.348.273.676.564.983.872zm-6.096-4.832a2.619 2.619 0 0 0 1.056-3.294 7.625 7.625 0 0 1-.228-.587 2.619 2.619 0 0 0-3-1.72 10.304 10.304 0 0 0 1.427 4.517c.222.373.47.735.745 1.084zM5.33 43.658a2.619 2.619 0 0 0 3.001-1.72 7.64 7.64 0 0 1 .228-.588 2.619 2.619 0 0 0-1.056-3.294 10.344 10.344 0 0 0-1.65 3.036 10.273 10.273 0 0 0-.523 2.566zm3.193-6.723a2.619 2.619 0 0 0 3.415.692c.094-.055.191-.11.29-.162.23-.124.457-.254.678-.389a2.618 2.618 0 0 0 .693-3.852 10.978 10.978 0 0 1-2.058 1.618c-.18.11-.364.215-.551.316a11.539 11.539 0 0 0-1.463.93c-.358.266-.692.55-1.004.847zm7.64-7.845a2.618 2.618 0 0 0 3.11-2.41c.015-.266.023-.532.023-.8v-.011c0-.031 0-.062-.002-.092.001-.03.002-.061.001-.092v-.012c0-.124.003-.248.008-.371a2.619 2.619 0 0 0-2.172-2.698 10.46 10.46 0 0 0-.454 3.073v.207a10.064 10.064 0 0 1-.286 2.407c-.065.27-.142.536-.229.799zm2.039-8.885a2.619 2.619 0 0 0 3.471-.224c.178-.179.363-.351.557-.516a2.619 2.619 0 0 0 .479-3.454 11.71 11.71 0 0 0-2.175 1.46 11.402 11.402 0 0 0-1.587 1.652c-.27.346-.519.707-.745 1.082zm6.962-5.137a2.619 2.619 0 0 0 2.693 2.232c.129-.005.259-.007.389-.007h.42a2.618 2.618 0 0 0 2.62-2.617l-3.039-.002a12.606 12.606 0 0 0-1.796.132c-.438.064-.867.152-1.287.262zm7.612-.391a2.618 2.618 0 0 0 2.617 2.619h.84a2.618 2.618 0 0 0 2.62-2.617l-6.077-.002z" fill="#1B1F21"/><path d="M68.031 64.543c0-.765.164-1.428.492-1.989a3.517 3.517 0 0 1 1.395-1.332c.59-.315 1.257-.472 2.004-.472.76 0 1.428.157 2.005.472.589.3 1.047.738 1.375 1.312.34.56.51 1.23.51 2.01 0 .765-.17 1.435-.51 2.009-.328.56-.786.998-1.376 1.312-.576.315-1.244.472-2.004.472-.746 0-1.415-.15-2.004-.451a3.517 3.517 0 0 1-1.395-1.333c-.328-.574-.492-1.244-.492-2.01zm2.28 0c0 .479.15.862.452 1.149.301.273.688.41 1.16.41.458 0 .838-.144 1.139-.43.314-.288.472-.664.472-1.129 0-.478-.158-.854-.472-1.127-.301-.287-.681-.43-1.14-.43-.471 0-.858.143-1.16.43-.3.273-.451.649-.451 1.127zM68.031 24.494c0-.766.164-1.429.492-1.99a3.517 3.517 0 0 1 1.395-1.332c.59-.315 1.257-.472 2.004-.472.76 0 1.428.157 2.005.472.589.3 1.047.738 1.375 1.312.34.56.51 1.23.51 2.01 0 .765-.17 1.435-.51 2.01-.328.56-.786.997-1.376 1.312-.576.314-1.244.471-2.004.471-.746 0-1.415-.15-2.004-.45a3.517 3.517 0 0 1-1.395-1.334c-.328-.574-.492-1.244-.492-2.01zm2.28 0c0 .478.15.86.452 1.148.301.273.688.41 1.16.41.458 0 .838-.143 1.139-.43.314-.288.472-.663.472-1.128 0-.479-.158-.855-.472-1.128-.301-.287-.681-.43-1.14-.43-.471 0-.858.143-1.16.43-.3.273-.451.65-.451 1.128zM114.478 38.25c-3.415 0-5.916 2.646-5.916 6.231 0 3.616 2.484 6.295 5.901 6.295 1.622 0 2.992-.556 3.957-1.538.965-.982 1.515-2.378 1.515-4.04v-1.17h-6.678v2.196h4.213c-.118 1.356-1.351 2.277-2.992 2.277-1.073 0-1.933-.395-2.526-1.087-.595-.694-.933-1.699-.933-2.933 0-1.216.352-2.2.954-2.879.602-.677 1.462-1.06 2.505-1.06.748 0 1.365.196 1.842.552.478.356.826.879 1.026 1.548l.038.129 2.306-.68-.035-.128c-.614-2.245-2.552-3.713-5.177-3.713zM26.501 38.41h-2.436v12.207h2.289v-8.653l3.207 4.356h.565l3.207-4.4v8.697h2.303V38.41H33.2l-3.311 4.617-3.387-4.617z" fill="#1B1F21"/><path fill-rule="evenodd" clip-rule="evenodd" d="M43.955 38.41h-2.483L37 50.616h2.43l1.254-3.565h3.968l1.254 3.565h2.522L43.955 38.41zm-.087 6.43h-2.4l1.2-3.392 1.2 3.392zM54.382 38.41h-4.585v12.207h2.38v-4.743h1.625l2.921 4.743h2.718l-3.223-5.241c1.251-.526 2.076-1.649 2.076-3.234 0-1.125-.402-2.06-1.1-2.715-.695-.654-1.674-1.018-2.812-1.018zm-2.205 5.22v-2.977h2.175c.491 0 .88.154 1.145.41.264.255.417.624.417 1.078 0 .463-.153.832-.417 1.085-.265.254-.653.404-1.145.404h-2.175z" fill="#1B1F21"/><path d="M63.214 38.41h-2.38v12.207h2.38V45.35h1.018l3.701 5.268h2.837l-4.526-6.498 4.404-5.71h-2.88l-3.472 4.616h-1.082V38.41zM79.785 38.41H71.93v12.207h8.008v-2.243H74.31V45.38h3.778v-2.243H74.31v-2.484h5.475v-2.244zM89.855 38.41h-9.063v2.29h3.334v9.917h2.38v-9.916h3.35v-2.292zM93.904 38.41h-2.38v12.207h2.38V38.41zM99.06 38.41H96.6v12.207h2.258v-8.45l5.265 8.45h2.458V38.41h-2.273v8.388l-5.25-8.388z" fill="#1B1F21"/></svg>